<svg width="25" height="24" viewBox="0 0 25 24" fill="none" xmlns="http://www.w3.org/2000/svg">
<path d="M12.25 15C13.0456 15 13.8087 14.6839 14.3713 14.1213C14.9339 13.5587 15.25 12.7956 15.25 12C15.25 11.2044 14.9339 10.4413 14.3713 9.87868C13.8087 9.31607 13.0456 9 12.25 9C11.4544 9 10.6913 9.31607 10.1287 9.87868C9.56607 10.4413 9.25 11.2044 9.25 12C9.25 12.7956 9.56607 13.5587 10.1287 14.1213C10.6913 14.6839 11.4544 15 12.25 15Z" stroke="#3A907E" stroke-width="1.5" stroke-miterlimit="10" stroke-linecap="round" stroke-linejoin="round"/>
<path d="M2.25 12.8814V11.1214C2.25 10.0814 3.1 9.2214 4.15 9.2214C5.96 9.2214 6.7 7.9414 5.79 6.3714C5.27 5.4714 5.58 4.3014 6.49 3.7814L8.22 2.7914C9.01 2.3214 10.03 2.6014 10.5 3.3914L10.61 3.5814C11.51 5.1514 12.99 5.1514 13.9 3.5814L14.01 3.3914C14.48 2.6014 15.5 2.3214 16.29 2.7914L18.02 3.7814C18.93 4.3014 19.24 5.4714 18.72 6.3714C17.81 7.9414 18.55 9.2214 20.36 9.2214C21.4 9.2214 22.26 10.0714 22.26 11.1214V12.8814C22.26 13.9214 21.41 14.7814 20.36 14.7814C18.55 14.7814 17.81 16.0614 18.72 17.6314C19.24 18.5414 18.93 19.7014 18.02 20.2214L16.29 21.2114C15.5 21.6814 14.48 21.4014 14.01 20.6114L13.9 20.4214C13 18.8514 11.52 18.8514 10.61 20.4214L10.5 20.6114C10.03 21.4014 9.01 21.6814 8.22 21.2114L6.49 20.2214C6.0541 19.9704 5.73558 19.5567 5.60435 19.0712C5.47311 18.5856 5.53988 18.0678 5.79 17.6314C6.7 16.0614 5.96 14.7814 4.15 14.7814C3.1 14.7814 2.25 13.9214 2.25 12.8814Z" stroke="#98A2B3" stroke-width="1.5" stroke-miterlimit="10" stroke-linecap="round" stroke-linejoin="round"/>
</svg>
