<svg width="25" height="24" viewBox="0 0 25 24" fill="none" xmlns="http://www.w3.org/2000/svg">
<path d="M20.25 12.5C20.25 11.837 20.5134 11.2011 20.9822 10.7322C21.4511 10.2634 22.087 10 22.75 10V9C22.75 5 21.75 4 17.75 4H7.75C3.75 4 2.75 5 2.75 9V9.5C3.41304 9.5 4.04893 9.76339 4.51777 10.2322C4.98661 10.7011 5.25 11.337 5.25 12C5.25 12.663 4.98661 13.2989 4.51777 13.7678C4.04893 14.2366 3.41304 14.5 2.75 14.5V15C2.75 19 3.75 20 7.75 20H17.75C21.75 20 22.75 19 22.75 15C22.087 15 21.4511 14.7366 20.9822 14.2678C20.5134 13.7989 20.25 13.163 20.25 12.5Z" stroke="#98A2B3" stroke-width="1.5" stroke-linecap="round" stroke-linejoin="round"/>
<path d="M10.75 4V20" stroke="#3A907E" stroke-width="1.5" stroke-linecap="round" stroke-linejoin="round" stroke-dasharray="5 5"/>
</svg>
