<svg width="25" height="24" viewBox="0 0 25 24" fill="none" xmlns="http://www.w3.org/2000/svg">
<path d="M18.54 13.55C18.12 13.96 17.88 14.55 17.94 15.18C18.03 16.26 19.02 17.05 20.1 17.05H22V18.24C22 20.31 20.31 22 18.24 22H6.76C4.69 22 3 20.31 3 18.24V11.51C3 9.44 4.69 7.75 6.76 7.75H18.24C20.31 7.75 22 9.44 22 11.51V12.95H19.98C19.42 12.95 18.91 13.17 18.54 13.55Z" stroke="#98A2B3" stroke-width="1.5" stroke-linecap="round" stroke-linejoin="round"/>
<path d="M3 12.4089V7.83893C3 6.64893 3.73 5.58893 4.84 5.16893L12.78 2.16893C13.0677 2.06052 13.3774 2.02353 13.6825 2.06116C13.9876 2.09878 14.2791 2.20988 14.5318 2.38493C14.7846 2.55998 14.991 2.79374 15.1335 3.06615C15.2761 3.33856 15.3503 3.64149 15.35 3.94893V7.74893" stroke="#3A907E" stroke-width="1.5" stroke-linecap="round" stroke-linejoin="round"/>
<path d="M23.0588 13.9731V16.0331C23.0588 16.5831 22.6188 17.0331 22.0588 17.0531H20.0988C19.0188 17.0531 18.0288 16.2631 17.9388 15.1831C17.8788 14.5531 18.1188 13.9631 18.5388 13.5531C18.9088 13.1731 19.4188 12.9531 19.9788 12.9531H22.0588C22.6188 12.9731 23.0588 13.4231 23.0588 13.9731Z" stroke="#98A2B3" stroke-width="1.5" stroke-linecap="round" stroke-linejoin="round"/>
<path d="M7.5 12H14.5" stroke="#3A907E" stroke-width="1.5" stroke-linecap="round" stroke-linejoin="round"/>
</svg>
