<svg width="20" height="20" viewBox="0 0 20 20" fill="none" xmlns="http://www.w3.org/2000/svg">
<path d="M10.0013 18.0443C9.74297 18.0443 9.49297 18.0109 9.28464 17.9359C6.1013 16.8443 1.04297 12.9693 1.04297 7.24427C1.04297 4.3276 3.4013 1.96094 6.3013 1.96094C7.70964 1.96094 9.0263 2.51094 10.0013 3.49427C10.9763 2.51094 12.293 1.96094 13.7013 1.96094C16.6013 1.96094 18.9596 4.33594 18.9596 7.24427C18.9596 12.9776 13.9013 16.8443 10.718 17.9359C10.5096 18.0109 10.2596 18.0443 10.0013 18.0443ZM6.3013 3.21094C4.09297 3.21094 2.29297 5.01927 2.29297 7.24427C2.29297 12.9359 7.76797 16.1026 9.69297 16.7609C9.84297 16.8109 10.168 16.8109 10.318 16.7609C12.2346 16.1026 17.718 12.9443 17.718 7.24427C17.718 5.01927 15.918 3.21094 13.7096 3.21094C12.443 3.21094 11.268 3.8026 10.5096 4.8276C10.2763 5.14427 9.74297 5.14427 9.50964 4.8276C8.73464 3.79427 7.56797 3.21094 6.3013 3.21094Z" fill="#2D2D2D"/>
</svg>
