<svg width="18" height="18" viewBox="0 0 18 18" fill="none" xmlns="http://www.w3.org/2000/svg">
<path d="M6.2925 13.8641V6.24412C6.2925 5.94412 6.3825 5.65162 6.5475 5.40412L8.595 2.35912C8.9175 1.87162 9.72 1.52662 10.4025 1.78162C11.1375 2.02912 11.625 2.85412 11.4675 3.58912L11.0775 6.04163C11.0475 6.26662 11.1075 6.46912 11.235 6.62662C11.3625 6.76912 11.55 6.85912 11.7525 6.85912H14.835C15.4275 6.85912 15.9375 7.09912 16.2375 7.51912C16.5225 7.92412 16.575 8.44912 16.3875 8.98162L14.5425 14.5991C14.31 15.5291 13.2975 16.2866 12.2925 16.2866H9.3675C8.865 16.2866 8.16 16.1141 7.8375 15.7916L6.8775 15.0491C6.51 14.7716 6.2925 14.3291 6.2925 13.8641ZM3.9075 4.78087H3.135C1.9725 4.78087 1.5 5.23087 1.5 6.34087V13.8859C1.5 14.9959 1.9725 15.4459 3.135 15.4459H3.9075C5.07 15.4459 5.5425 14.9959 5.5425 13.8859V6.34087C5.5425 5.23087 5.07 4.78087 3.9075 4.78087Z" fill="#3A907E"/>
</svg>
