<svg width="32" height="32" viewBox="0 0 32 32" fill="none" xmlns="http://www.w3.org/2000/svg">
<path d="M24.0001 20.0002C23.2424 20.0054 22.4958 20.1828 21.8167 20.5188C21.1376 20.8549 20.5438 21.341 20.0801 21.9402L12.3101 18.4902C12.7573 17.7363 12.9955 16.8768 13.0001 16.0002C12.9953 15.553 12.928 15.1087 12.8001 14.6802L20.1101 10.1102C20.852 11.0289 21.8952 11.6554 23.0548 11.8786C24.2144 12.1018 25.4156 11.9074 26.4456 11.3298C27.4756 10.7522 28.2679 9.8287 28.6822 8.72285C29.0965 7.61701 29.106 6.40022 28.709 5.28804C28.3121 4.17585 27.5343 3.24006 26.5134 2.64643C25.4926 2.05281 24.2946 1.83965 23.1316 2.04474C21.9687 2.24983 20.9158 2.85991 20.1596 3.76692C19.4034 4.67393 18.9926 5.81933 19.0001 7.0002C19.0048 7.44738 19.0721 7.8917 19.2001 8.3202L11.8901 12.8902C11.2825 12.1222 10.4628 11.5495 9.53266 11.2432C8.60253 10.9369 7.60294 10.9105 6.65793 11.1673C5.71293 11.424 4.86411 11.9526 4.21682 12.6874C3.56953 13.4222 3.15227 14.3309 3.01682 15.3008C2.88136 16.2706 3.03368 17.2589 3.45487 18.1429C3.87606 19.027 4.54758 19.7679 5.38608 20.2737C6.22459 20.7795 7.19317 21.028 8.17162 20.9883C9.15007 20.9485 10.0953 20.6223 10.8901 20.0502L19.1601 23.7302C19.0559 24.1456 19.0022 24.572 19.0001 25.0002C19.0001 25.9891 19.2933 26.9558 19.8427 27.7781C20.3921 28.6003 21.173 29.2412 22.0866 29.6196C23.0003 29.998 24.0056 30.0971 24.9755 29.9041C25.9454 29.7112 26.8363 29.235 27.5356 28.5357C28.2348 27.8365 28.7111 26.9456 28.904 25.9757C29.0969 25.0058 28.9979 24.0004 28.6194 23.0868C28.241 22.1732 27.6001 21.3923 26.7779 20.8429C25.9557 20.2934 24.989 20.0002 24.0001 20.0002ZM24.0001 4.0002C24.5934 4.0002 25.1734 4.17615 25.6668 4.5058C26.1601 4.83544 26.5446 5.30398 26.7717 5.85215C26.9988 6.40033 27.0582 7.00353 26.9424 7.58547C26.8267 8.16742 26.5409 8.70197 26.1214 9.12152C25.7018 9.54108 25.1673 9.8268 24.5853 9.94256C24.0034 10.0583 23.4002 9.99891 22.852 9.77184C22.3038 9.54478 21.8353 9.16026 21.5056 8.66691C21.176 8.17357 21.0001 7.59355 21.0001 7.0002C21.0001 6.20455 21.3161 5.44149 21.8787 4.87888C22.4413 4.31627 23.2044 4.0002 24.0001 4.0002ZM5.00005 16.0002C5.00005 15.4069 5.176 14.8268 5.50564 14.3335C5.83529 13.8401 6.30382 13.4556 6.852 13.2286C7.40018 13.0015 8.00338 12.9421 8.58532 13.0578C9.16726 13.1736 9.70181 13.4593 10.1214 13.8789C10.5409 14.2984 10.8267 14.833 10.9424 15.4149C11.0582 15.9969 10.9988 16.6001 10.7717 17.1483C10.5446 17.6964 10.1601 18.165 9.66676 18.4946C9.17341 18.8243 8.59339 19.0002 8.00005 19.0002C7.2044 19.0002 6.44134 18.6841 5.87873 18.1215C5.31612 17.5589 5.00005 16.7959 5.00005 16.0002ZM24.0001 28.0002C23.4067 28.0002 22.8267 27.8243 22.3333 27.4946C21.84 27.165 21.4555 26.6964 21.2284 26.1483C21.0014 25.6001 20.9419 24.9969 21.0577 24.4149C21.1735 23.833 21.4592 23.2984 21.8787 22.8789C22.2983 22.4593 22.8328 22.1736 23.4148 22.0578C23.9967 21.9421 24.5999 22.0015 25.1481 22.2286C25.6963 22.4556 26.1648 22.8401 26.4945 23.3335C26.8241 23.8268 27.0001 24.4069 27.0001 25.0002C27.0001 25.7959 26.684 26.5589 26.1214 27.1215C25.5588 27.6841 24.7957 28.0002 24.0001 28.0002Z" fill="black"/>
</svg>
