<svg width="16" height="16" viewBox="0 0 16 16" fill="none" xmlns="http://www.w3.org/2000/svg">
<g clip-path="url(#clip0_2493_19202)">
<path d="M2.00781 7.47656V10.4699C2.00781 13.4632 3.20781 14.6632 6.20115 14.6632H9.79448C12.7878 14.6632 13.9878 13.4632 13.9878 10.4699V7.47656" stroke="#ACACAC" stroke-width="1.5" stroke-linecap="round" stroke-linejoin="round"/>
<path d="M7.99902 8.0026C9.21902 8.0026 10.119 7.00927 9.99902 5.78927L9.55902 1.33594H6.44568L5.99902 5.78927C5.87902 7.00927 6.77902 8.0026 7.99902 8.0026Z" stroke="#ACACAC" stroke-width="1.5" stroke-linecap="round" stroke-linejoin="round"/>
<path d="M12.2056 8.0026C13.5523 8.0026 14.5389 6.90927 14.4056 5.56927L14.2189 3.73594C13.9789 2.0026 13.3123 1.33594 11.5656 1.33594H9.53228L9.99895 6.00927C10.1123 7.10927 11.1056 8.0026 12.2056 8.0026ZM3.75895 8.0026C4.85895 8.0026 5.85228 7.10927 5.95895 6.00927L6.10561 4.53594L6.42561 1.33594H4.39228C2.64561 1.33594 1.97895 2.0026 1.73895 3.73594L1.55895 5.56927C1.42561 6.90927 2.41228 8.0026 3.75895 8.0026ZM7.99895 11.3359C6.88561 11.3359 6.33228 11.8893 6.33228 13.0026V14.6693H9.66561V13.0026C9.66561 11.8893 9.11228 11.3359 7.99895 11.3359Z" stroke="#ACACAC" stroke-width="1.5" stroke-linecap="round" stroke-linejoin="round"/>
</g>
<defs>
<clipPath id="clip0_2493_19202">
<rect width="16" height="16" fill="white"/>
</clipPath>
</defs>
</svg>
