<svg width="24" height="24" viewBox="0 0 24 24" fill="none" xmlns="http://www.w3.org/2000/svg">
<path d="M16.5 8.62639C16.09 8.62639 15.75 8.28639 15.75 7.87639V6.49639C15.75 5.44639 15.3 4.42639 14.52 3.71639C13.73 2.99639 12.71 2.66639 11.63 2.76639C9.83 2.93639 8.25 4.77639 8.25 6.69639V7.66639C8.25 8.07639 7.91 8.41639 7.5 8.41639C7.09 8.41639 6.75 8.07639 6.75 7.66639V6.68639C6.75 3.99639 8.92 1.51639 11.49 1.26639C12.99 1.12639 14.43 1.59639 15.53 2.60639C16.0712 3.0997 16.5037 3.7004 16.7999 4.37017C17.096 5.03993 17.2493 5.76407 17.25 6.49639V7.87639C17.25 8.28639 16.91 8.62639 16.5 8.62639Z" fill="black"/>
<path d="M14.9998 22.75H8.99982C4.37982 22.75 3.51982 20.6 3.29982 18.51L2.54982 12.52C2.43982 11.44 2.39982 9.89 3.44982 8.73C4.34982 7.73 5.83982 7.25 7.99982 7.25H15.9998C18.1698 7.25 19.6598 7.74 20.5498 8.73C21.5898 9.89 21.5598 11.44 21.4498 12.5L20.6998 18.51C20.4798 20.6 19.6198 22.75 14.9998 22.75ZM7.99982 8.75C6.30982 8.75 5.14982 9.08 4.55982 9.74C4.06982 10.28 3.90982 11.11 4.03982 12.35L4.78982 18.34C4.95982 19.94 5.39982 21.26 8.99982 21.26H14.9998C18.5998 21.26 19.0398 19.95 19.2098 18.36L19.9598 12.35C20.0898 11.13 19.9298 10.3 19.4398 9.75C18.8498 9.08 17.6898 8.75 15.9998 8.75H7.99982Z" fill="black"/>
<path d="M15.4202 13.1484C14.8602 13.1484 14.4102 12.6984 14.4102 12.1484C14.4102 11.5984 14.8602 11.1484 15.4102 11.1484C15.9602 11.1484 16.4102 11.5984 16.4102 12.1484C16.4102 12.6984 15.9702 13.1484 15.4202 13.1484ZM8.42016 13.1484C7.86016 13.1484 7.41016 12.6984 7.41016 12.1484C7.41016 11.5984 7.86016 11.1484 8.41016 11.1484C8.96016 11.1484 9.41016 11.5984 9.41016 12.1484C9.41016 12.6984 8.97016 13.1484 8.42016 13.1484Z" fill="black"/>
</svg>
