<svg width="24" height="24" viewBox="0 0 24 24" fill="none" xmlns="http://www.w3.org/2000/svg">
<g clip-path="url(#clip0_2392_43423)">
<path d="M20.8319 8.01002L14.2819 2.77002C13.0019 1.75002 11.0019 1.74002 9.73192 2.76002L3.18192 8.01002C2.24192 8.76002 1.67192 10.26 1.87192 11.44L3.13192 18.98C3.42192 20.67 4.99192 22 6.70192 22H17.3019C18.9919 22 20.5919 20.64 20.8819 18.97L22.1419 11.43C22.3219 10.26 21.7519 8.76002 20.8319 8.01002ZM12.7519 18C12.7519 18.41 12.4119 18.75 12.0019 18.75C11.5919 18.75 11.2519 18.41 11.2519 18V15C11.2519 14.59 11.5919 14.25 12.0019 14.25C12.4119 14.25 12.7519 14.59 12.7519 15V18Z" fill="#3A907E"/>
</g>
<defs>
<clipPath id="clip0_2392_43423">
<rect width="24" height="24" fill="white"/>
</clipPath>
</defs>
</svg>
